<?xml version="1.0" encoding="iso-8859-1"?>
<!-- Uploaded to: SVG Repo, www.svgrepo.com, Generator: SVG Repo Mixer Tools -->
<svg height="800px" width="800px" version="1.1" id="Layer_1" xmlns="http://www.w3.org/2000/svg" xmlns:xlink="http://www.w3.org/1999/xlink" 
	 viewBox="0 0 512 512" xml:space="preserve">
<g transform="translate(1 1)">
	<g>
		<path style="fill:#FFE100;" d="M75.8,161.133c-2.56,0-4.267-0.853-5.973-2.56c-3.413-3.413-3.413-8.533,0-11.947l51.2-51.2
			c3.413-3.413,8.533-3.413,11.947,0s3.413,8.533,0,11.947l-51.2,51.2C80.067,160.28,77.507,161.133,75.8,161.133z"/>
		<path style="fill:#FFE100;" d="M272.067,169.667c-1.707,0-3.413-0.853-5.12-1.707l-68.267-51.2
			c-3.413-2.56-4.267-8.533-1.707-11.947c2.56-3.413,8.533-4.267,11.947-1.707l68.267,51.2c3.413,2.56,4.267,8.533,1.707,11.947
			C277.187,168.813,274.627,169.667,272.067,169.667z"/>
		<path style="fill:#FFE100;" d="M331.8,178.2c-2.56,0-4.267-0.853-5.973-2.56c-3.413-3.413-2.56-8.533,0.853-11.947l93.867-85.333
			c3.413-3.413,8.533-2.56,11.947,0.853c3.413,3.413,2.56,8.533-0.853,11.947l-93.867,85.333
			C336.067,177.347,333.507,178.2,331.8,178.2z"/>
		<path style="fill:#FFE100;" d="M502.467,502.467c-2.56,0-4.267-0.853-5.973-2.56l-76.8-76.8c-3.413-3.413-3.413-8.533,0-11.947
			c3.413-3.413,8.533-3.413,11.947,0l76.8,76.8c3.413,3.413,3.413,8.533,0,11.947C506.733,501.613,505.027,502.467,502.467,502.467z
			"/>
		<path style="fill:#FFE100;" d="M442.733,348.867c0,46.933-38.4,85.333-85.333,85.333s-85.333-38.4-85.333-85.333
			s38.4-85.333,85.333-85.333S442.733,301.933,442.733,348.867"/>
	</g>
	<path style="fill:#FFA800;" d="M357.4,263.533c-4.267,0-8.533,0.853-12.8,0.853c40.96,6.827,72.533,41.813,72.533,84.48
		s-31.573,78.507-72.533,84.48c4.267,0.853,8.533,0.853,12.8,0.853c46.933,0,85.333-38.4,85.333-85.333
		S404.333,263.533,357.4,263.533"/>
	<g>
		<path style="fill:#FFE100;" d="M212.333,75.8c0,23.893-18.773,42.667-42.667,42.667S127,99.693,127,75.8
			s18.773-42.667,42.667-42.667S212.333,51.907,212.333,75.8"/>
		<path style="fill:#FFE100;" d="M502.467,50.2c0,23.893-18.773,42.667-42.667,42.667c-23.893,0-42.667-18.773-42.667-42.667
			S435.907,7.533,459.8,7.533C483.693,7.533,502.467,26.307,502.467,50.2"/>
	</g>
	<path style="fill:#00DA6C;" d="M92.867,178.2c0,23.893-18.773,42.667-42.667,42.667S7.533,202.093,7.533,178.2
		s18.773-42.667,42.667-42.667S92.867,154.307,92.867,178.2"/>
	<path style="fill:#FFFFFF;" d="M33.133,178.2c0-18.773,12.8-34.987,29.867-40.107c-4.267-1.707-8.533-2.56-12.8-2.56
		c-23.893,0-42.667,18.773-42.667,42.667s18.773,42.667,42.667,42.667c4.267,0,8.533-0.853,12.8-2.56
		C45.933,213.187,33.133,196.973,33.133,178.2"/>
	<path style="fill:#00DA6C;" d="M340.333,186.733c0,23.893-18.773,42.667-42.667,42.667c-23.893,0-42.667-18.773-42.667-42.667
		s18.773-42.667,42.667-42.667C321.56,144.067,340.333,162.84,340.333,186.733"/>
	<path d="M357.4,442.733c-52.053,0-93.867-41.813-93.867-93.867S305.347,255,357.4,255s93.867,41.813,93.867,93.867
		S409.453,442.733,357.4,442.733z M357.4,272.067c-42.667,0-76.8,34.133-76.8,76.8s34.133,76.8,76.8,76.8s76.8-34.133,76.8-76.8
		S400.067,272.067,357.4,272.067z"/>
	<path d="M50.2,229.4C22.04,229.4-1,206.36-1,178.2S22.04,127,50.2,127s51.2,23.04,51.2,51.2S78.36,229.4,50.2,229.4z M50.2,144.067
		c-18.773,0-34.133,15.36-34.133,34.133s15.36,34.133,34.133,34.133s34.133-15.36,34.133-34.133S68.973,144.067,50.2,144.067z"/>
	<path d="M169.667,127c-28.16,0-51.2-23.04-51.2-51.2s23.04-51.2,51.2-51.2s51.2,23.04,51.2,51.2S197.827,127,169.667,127z
		 M169.667,41.667c-18.773,0-34.133,15.36-34.133,34.133s15.36,34.133,34.133,34.133S203.8,94.573,203.8,75.8
		S188.44,41.667,169.667,41.667z"/>
	<path d="M459.8,101.4c-28.16,0-51.2-23.04-51.2-51.2S431.64-1,459.8-1S511,22.04,511,50.2S487.96,101.4,459.8,101.4z M459.8,16.067
		c-18.773,0-34.133,15.36-34.133,34.133s15.36,34.133,34.133,34.133s34.133-15.36,34.133-34.133S478.573,16.067,459.8,16.067z"/>
	<path d="M297.667,237.933c-28.16,0-51.2-23.04-51.2-51.2s23.04-51.2,51.2-51.2s51.2,23.04,51.2,51.2
		S325.827,237.933,297.667,237.933z M297.667,152.6c-18.773,0-34.133,15.36-34.133,34.133s15.36,34.133,34.133,34.133
		s34.133-15.36,34.133-34.133S316.44,152.6,297.667,152.6z"/>
	<path d="M75.8,152.6c-2.56,0-4.267-0.853-5.973-2.56c-3.413-3.413-3.413-8.533,0-11.947l51.2-51.2
		c3.413-3.413,8.533-3.413,11.947,0s3.413,8.533,0,11.947l-51.2,51.2C80.067,151.747,77.507,152.6,75.8,152.6z"/>
	<path d="M272.067,161.133c-1.707,0-3.413-0.853-5.12-1.707l-68.267-51.2c-3.413-2.56-4.267-8.533-1.707-11.947
		c2.56-3.413,8.533-4.267,11.947-1.707l68.267,51.2c3.413,2.56,4.267,8.533,1.707,11.947
		C277.187,160.28,274.627,161.133,272.067,161.133z"/>
	<path d="M331.8,169.667c-2.56,0-4.267-0.853-5.973-2.56c-3.413-3.413-2.56-8.533,0.853-11.947l93.867-85.333
		c3.413-3.413,8.533-2.56,11.947,0.853c3.413,3.413,2.56,8.533-0.853,11.947l-93.867,85.333
		C336.067,168.813,333.507,169.667,331.8,169.667z"/>
	<path d="M502.467,511c-2.56,0-4.267-0.853-5.973-2.56l-85.333-85.333c-3.413-3.413-3.413-8.533,0-11.947
		c3.413-3.413,8.533-3.413,11.947,0l85.333,85.333c3.413,3.413,3.413,8.533,0,11.947C506.733,510.147,505.027,511,502.467,511z"/>
</g>
</svg>